<svg xmlns="http://www.w3.org/2000/svg" viewBox="0 0 32 32">
  <defs>
    <linearGradient id="brand-grad" x1="0%" y1="0%" x2="100%" y2="100%">
      <stop offset="0%" stop-color="#0a66c2" />
      <stop offset="100%" stop-color="#0ea5e9" />
    </linearGradient>
  </defs>
  <rect width="32" height="32" rx="8" fill="url(#brand-grad)"/>
  <path d="M10 13h12a2 2 0 0 1 2 2v8a2 2 0 0 1-2 2H10a2 2 0 0 1-2-2v-8a2 2 0 0 1 2-2z" fill="none" stroke="white" stroke-width="2" stroke-linejoin="round"/>
  <path d="M13 13V10a1 1 0 0 1 1-1h4a1 1 0 0 1 1 1v3" fill="none" stroke="white" stroke-width="2" stroke-linejoin="round"/>
  <path d="M11 21h2v-3h-2zm4 0h2v-5h-2zm4 0h2v-7h-2z" fill="white"/>
</svg>
